<svg width="1099" height="798" viewBox="0 0 1099 798" fill="none" xmlns="http://www.w3.org/2000/svg">
<path d="M466 751C672.002 751 839 584.002 839 378C839 171.998 672.002 5 466 5C259.998 5 93 171.998 93 378C93 584.002 259.998 751 466 751Z" fill="#F2F2F2" fill-opacity="0.8"/>
<path d="M870 773.609C996.473 773.609 1099 757.205 1099 736.969C1099 716.734 996.473 700.329 870 700.329C743.527 700.329 641 716.734 641 736.969C641 757.205 743.527 773.609 870 773.609Z" fill="#4B4B4B"/>
<path d="M819.12 384.785C819.12 384.785 821.07 391.283 810.022 397.132C798.974 402.981 795.725 425.077 808.722 431.576C821.72 438.075 825.619 446.523 819.12 452.372C812.622 458.221 800.924 473.818 816.521 477.717C832.118 481.616 834.067 489.415 829.518 492.664C824.969 495.914 839.916 486.815 839.916 486.815C839.916 486.815 842.516 502.412 856.163 498.513C869.811 494.614 908.153 420.528 888.657 410.13C869.161 399.732 819.12 384.785 819.12 384.785Z" fill="#2F2E41"/>
<path d="M842.675 447.537C842.675 447.537 849.416 471.131 837.619 472.816C830.298 473.957 823.361 476.848 817.396 481.243L839.305 509.893H879.752L905.031 484.613C905.031 484.613 871.325 459.334 878.066 444.166C884.808 428.999 842.675 447.537 842.675 447.537Z" fill="#FFB9B9"/>
<path opacity="0.1" d="M842.675 447.537C842.675 447.537 849.416 471.131 837.619 472.816C830.298 473.957 823.361 476.848 817.396 481.243L839.305 509.893H879.752L905.031 484.613C905.031 484.613 871.325 459.334 878.066 444.166C884.808 428.999 842.675 447.537 842.675 447.537Z" fill="black"/>
<path d="M852.787 740.779L891.549 754.261L918.513 755.946L916.828 732.352L861.213 715.904L852.787 740.779Z" fill="#FFB9B9"/>
<path d="M902.503 735.723C902.503 735.723 902.503 759.317 905.874 759.317C909.244 759.317 954.747 754.261 968.23 759.317C981.712 764.373 1001.94 745.834 991.824 735.723C981.712 725.611 965.218 710.443 954.927 713.814C944.636 717.184 902.503 725.611 902.503 725.611V735.723Z" fill="#575A89"/>
<path d="M778.634 713.814C778.634 713.814 758.41 754.261 771.893 757.631C785.375 761.002 800.543 755.946 802.228 754.261C803.913 752.576 827.507 745.834 830.878 749.205C834.248 752.576 834.249 735.723 834.249 735.723L778.634 713.814Z" fill="#575A89"/>
<path d="M795.487 658.199C795.487 658.199 763.466 702.017 787.06 713.814C810.654 725.611 923.569 725.611 931.996 713.814C940.422 702.017 943.793 664.94 931.996 661.57C920.199 658.199 795.487 658.199 795.487 658.199Z" fill="#2F2E41"/>
<path opacity="0.2" d="M795.487 658.199C795.487 658.199 763.466 702.017 787.06 713.814C810.654 725.611 923.569 725.611 931.996 713.814C940.422 702.017 943.793 664.94 931.996 661.57C920.199 658.199 795.487 658.199 795.487 658.199Z" fill="#1C1C1C"/>
<path d="M856.157 459.334C877.565 459.334 894.919 441.98 894.919 420.572C894.919 399.165 877.565 381.81 856.157 381.81C834.75 381.81 817.396 399.165 817.396 420.572C817.396 441.98 834.75 459.334 856.157 459.334Z" fill="#FFB9B9"/>
<path d="M795.487 481.243L829.193 474.502C829.193 474.502 837.619 501.466 864.584 496.41C891.549 491.355 898.29 474.502 898.29 474.502C898.29 474.502 918.513 482.928 920.199 482.928C921.884 482.928 943.793 491.355 943.793 496.41C943.793 501.466 918.513 552.025 918.513 552.025L921.884 643.031L797.172 639.661L805.599 550.34L795.487 481.243Z" fill="#B80E66"/>
<path d="M776.948 525.061C776.948 525.061 766.837 614.381 773.578 621.122C780.319 627.864 807.284 646.402 807.284 646.402V626.178L793.801 600.899L807.284 541.914L776.948 525.061Z" fill="#FFB9B9"/>
<path d="M951.377 522.533C951.377 522.533 945.478 614.381 945.478 617.752C945.478 621.122 930.311 632.92 925.255 632.92C920.199 632.92 916.828 624.493 916.828 624.493L928.625 611.011L920.199 541.914L951.377 522.533Z" fill="#FFB9B9"/>
<path d="M935.366 651.458C935.366 651.458 1011.2 609.325 1012.89 651.458C1014.58 693.59 974.128 710.443 974.128 710.443C974.128 710.443 869.64 741.775 865.427 730.322C861.213 718.87 852.787 700.331 859.528 698.646C866.269 696.961 874.696 693.59 878.066 696.961C881.437 700.331 923.569 671.681 923.569 671.681L935.366 651.458Z" fill="#1C1C1C"/>
<path opacity="0.2" d="M970.758 646.402C970.758 646.402 955.59 653.143 950.534 658.199C945.478 663.255 923.569 671.681 923.569 671.681" stroke="black" stroke-width="2" stroke-miterlimit="10"/>
<path d="M805.599 484.613L795.487 481.243C795.487 481.243 758.41 520.005 770.207 530.116C782.004 540.228 788.746 543.599 792.116 546.969C795.487 550.34 812.34 552.025 812.34 552.025L805.599 484.613Z" fill="#B80E66"/>
<path d="M928.625 493.04L943.793 496.41C943.793 496.41 955.59 521.69 958.961 525.061C962.331 528.431 953.905 526.746 948.849 533.487C943.793 540.228 938.737 552.025 928.625 552.025C918.513 552.025 905.031 535.172 905.031 535.172L928.625 493.04Z" fill="#B80E66"/>
<path d="M798.857 666.625C798.857 666.625 734.816 621.122 712.907 654.828C690.998 688.534 807.284 734.037 824.137 740.778C840.99 747.52 856.157 754.261 856.157 754.261C856.157 754.261 871.325 717.184 871.325 710.443C871.325 703.702 859.528 703.702 856.157 703.702C852.787 703.702 837.619 700.331 834.249 695.275C830.878 690.22 798.857 666.625 798.857 666.625Z" fill="#1C1C1C"/>
<path opacity="0.2" d="M763.466 654.828C763.466 654.828 780.319 668.311 795.487 671.681C810.654 675.052 815.71 683.478 815.71 683.478" stroke="black" stroke-width="2" stroke-miterlimit="10"/>
<path d="M787.232 591.462L788.578 662.818C788.623 665.175 789.597 667.419 791.289 669.06C792.981 670.702 795.253 671.608 797.61 671.582L930.4 670.09C932.662 670.064 934.831 669.181 936.467 667.619C938.104 666.056 939.087 663.931 939.217 661.672L943.248 591.808C943.318 590.594 943.139 589.378 942.723 588.235C942.306 587.092 941.661 586.046 940.826 585.162C939.991 584.277 938.984 583.572 937.867 583.091C936.75 582.609 935.546 582.361 934.33 582.361H796.163C794.976 582.361 793.801 582.597 792.706 583.057C791.611 583.516 790.619 584.189 789.787 585.037C788.956 585.884 788.302 586.889 787.863 587.992C787.424 589.095 787.21 590.275 787.232 591.462V591.462Z" fill="#575A89"/>
<path d="M858.228 371.88C858.228 371.88 860.388 379.079 848.149 385.559C835.91 392.038 832.311 416.516 846.709 423.715C861.108 430.914 865.428 440.274 858.228 446.753C851.029 453.232 838.07 470.511 855.349 474.83C872.627 479.15 874.787 487.789 869.747 491.389C864.708 494.988 881.266 484.909 881.266 484.909C881.266 484.909 884.146 502.188 899.265 497.868C914.383 493.549 929.468 415.028 912.615 394.805C896.945 376 858.228 371.88 858.228 371.88Z" fill="#2F2E41"/>
<path d="M853.63 364.469C853.633 353.922 885.188 361.501 898.718 376.227C908.086 386.425 922.316 401.768 910.392 412.583C898.468 423.397 930.831 437.575 939.511 441.873C948.191 446.171 965.328 459.316 949.854 468.134C934.38 476.952 934.63 485.854 940.453 487.962C946.277 490.069 927.614 484.828 927.614 484.828C927.614 484.828 929.499 502.243 913.776 502.16C898.053 502.076 852.944 415.665 863.72 391.647C873.74 369.314 853.63 364.469 853.63 364.469Z" fill="#2F2E41"/>
<path d="M860.465 362.158C818.267 359.617 814.032 391.381 814.032 391.381C814.323 409.763 843.514 400.806 851.622 403.546C861.403 396.51 880.258 383.196 893.742 373.695C883.952 366.802 872.42 362.804 860.465 362.158Z" fill="#2F2E41"/>
<path d="M847.898 565.688C848.362 565.988 848.981 565.856 849.282 565.393L854.177 557.841C854.478 557.377 854.346 556.758 853.882 556.458C853.419 556.157 852.8 556.289 852.499 556.753L848.147 563.466L841.435 559.114C840.971 558.813 840.352 558.945 840.051 559.409C839.751 559.872 839.883 560.491 840.347 560.792L847.898 565.688ZM848.442 564.849C849.42 564.64 849.42 564.639 849.42 564.637C849.419 564.635 849.419 564.633 849.418 564.63C849.417 564.624 849.415 564.615 849.412 564.603C849.407 564.58 849.4 564.547 849.39 564.502C849.37 564.413 849.341 564.282 849.301 564.11C849.22 563.764 849.098 563.252 848.929 562.581C848.591 561.238 848.065 559.257 847.313 556.693C845.807 551.565 843.394 544.106 839.758 534.757C832.486 516.059 820.321 489.801 800.741 459.52C761.578 398.953 692.764 322.311 574.147 257.882L573.192 259.639C691.496 323.898 760.068 400.3 799.062 460.606C818.56 490.761 830.666 516.896 837.894 535.482C841.508 544.775 843.904 552.18 845.394 557.256C846.139 559.795 846.658 561.751 846.99 563.069C847.156 563.728 847.275 564.228 847.353 564.562C847.391 564.729 847.42 564.854 847.438 564.937C847.447 564.978 847.454 565.009 847.458 565.029C847.461 565.039 847.462 565.047 847.463 565.051C847.464 565.054 847.464 565.055 847.464 565.056C847.464 565.057 847.464 565.057 848.442 564.849Z" fill="#3F3D56"/>
<path d="M149 774.36C230.738 774.36 297 763.758 297 750.68C297 737.602 230.738 727 149 727C67.2619 727 1 737.602 1 750.68C1 763.758 67.2619 774.36 149 774.36Z" fill="#4B4B4B"/>
<path d="M581.671 254L582.145 255.945L572.562 258.269L575.581 267.658L573.675 268.269L570 256.833L581.671 254Z" fill="#3F3D56"/>
<path d="M38.5525 753.988L49.4641 738.741L38.5252 755.662L38.4961 757.412C37.7327 757.396 36.9765 757.359 36.2294 757.309L37.4055 734.829L37.3964 734.655L37.4164 734.622L37.5273 732.499L26.5611 715.536L37.5618 730.906L37.5873 731.357L38.4761 714.373L29.0877 696.845L38.5906 711.392L39.5158 676.179L39.5195 676.059V676.176L39.365 703.943L48.7116 692.935L39.3268 706.335L39.0796 721.542L47.8064 706.947L39.0433 723.779L38.9051 732.233L51.5745 711.921L38.8579 735.184L38.5525 753.988Z" fill="#3F3D56"/>
<path d="M211.773 721.29L218.155 716.549C218.155 716.549 222.379 740.146 217.666 743.681C212.952 747.216 195.275 753.109 195.275 760.179C195.275 767.25 155.207 776.678 154.029 766.072C152.85 755.466 157.564 749.573 157.564 749.573C157.564 749.573 176.419 730.718 178.776 727.182C181.133 723.647 187.026 716.576 187.026 716.576L211.773 721.29Z" fill="#575A89"/>
<path d="M117.496 427.853C117.496 427.853 117.673 428.89 117.979 430.788C118.262 432.473 118.651 434.853 119.123 437.788C124.072 467.992 138.508 556.907 137.53 559.841C136.352 563.376 128.103 576.339 137.53 579.875C138.438 580.217 139.416 581.324 140.465 583.068C142.489 586.825 144.158 590.762 145.449 594.83C151.071 611.139 157.081 637.242 160.557 655.32C162.078 663.263 163.115 669.65 163.421 672.997C163.527 673.77 163.539 674.554 163.456 675.33C162.278 680.044 170.527 696.542 174.062 701.256C177.598 705.97 183.49 710.684 182.312 715.398C181.133 720.112 211.773 733.075 215.309 724.826C218.844 716.576 218.844 711.862 220.022 709.506C221.201 707.149 222.379 690.65 216.487 688.293C210.595 685.936 214.13 644.69 208.238 636.441C206.27 633.695 203.265 624.397 200.118 613.213C198.881 608.83 197.632 604.163 196.406 599.484C191.433 580.311 187.026 561.019 187.026 561.019L188.204 423.139L123.389 414.89L121.727 418.555L118.416 425.826L117.496 427.853Z" fill="#1C1C1C"/>
<path d="M113.961 654.118C113.961 654.118 104.533 644.69 99.8195 654.118C95.1056 663.546 90.3918 700.078 82.1425 708.327C73.8933 716.576 63.2872 757.822 75.0718 760.179C86.8564 762.536 99.8194 756.644 100.998 749.573C102.176 742.502 126.924 705.97 126.924 702.435C126.924 698.899 110.426 685.936 110.426 685.936L113.961 654.118Z" fill="#575A89"/>
<path d="M258.912 363.038C258.912 363.038 243.592 500.918 240.056 513.881C236.521 526.844 217.666 576.339 211.773 584.589C205.881 592.838 168.17 660.01 163.456 663.546C158.743 667.081 149.315 676.509 149.315 676.509C149.315 676.509 131.638 694.186 129.281 697.721C126.924 701.256 106.89 690.65 105.712 683.579C104.533 676.509 106.89 664.724 108.069 660.01C109.247 655.296 105.712 648.226 109.247 644.69C112.783 641.155 130.459 623.478 130.459 615.229C130.459 606.979 161.099 558.663 172.884 548.056C184.669 537.45 182.312 519.773 182.312 519.773V447.887L117.496 427.853C117.496 427.853 121.032 371.287 129.281 371.287C137.53 371.287 245.949 352.432 258.912 363.038Z" fill="#1C1C1C"/>
<path d="M163.456 166.235C184.934 166.235 202.346 148.824 202.346 127.346C202.346 105.868 184.934 88.4565 163.456 88.4565C141.978 88.4565 124.567 105.868 124.567 127.346C124.567 148.824 141.978 166.235 163.456 166.235Z" fill="#9F616A"/>
<path d="M176.419 157.986C176.419 157.986 181.133 175.663 187.026 180.377C192.918 185.09 171.706 205.124 171.706 205.124L131.638 207.481L124.567 185.09C124.567 185.09 137.53 159.164 133.995 142.666C130.459 126.167 176.419 157.986 176.419 157.986Z" fill="#9F616A"/>
<path d="M192.918 178.02C192.918 178.02 182.312 179.198 179.955 182.733C177.598 186.269 161.099 196.875 148.136 194.518C135.173 192.161 126.924 188.626 124.567 189.804C122.21 190.983 117.496 215.73 117.496 215.73L130.459 253.441L128.102 357.146L124.567 385.429C124.567 385.429 117.496 376.001 145.779 381.893C174.062 387.786 210.595 377.18 222.379 376.001C234.164 374.823 254.198 371.287 255.376 364.216C256.555 357.146 251.841 331.22 251.841 331.22L232.986 252.263L221.201 209.838L192.918 178.02Z" fill="#1B1B4D"/>
<path d="M181.771 172.701C181.771 172.701 191.739 167.413 195.275 172.127C198.81 176.841 243.592 183.912 243.592 187.447C243.592 190.983 253.019 286.438 250.662 294.687C248.306 302.937 255.376 312.364 255.376 312.364L263.626 347.718C263.626 347.718 286.016 414.89 276.589 417.247C267.161 419.604 258.912 417.247 255.376 417.247C251.841 417.247 253.019 372.466 243.592 360.681C234.164 348.896 221.201 319.435 218.844 313.543C216.487 307.65 187.026 226.337 188.204 216.909C189.382 207.481 181.771 172.701 181.771 172.701Z" fill="#B80E66"/>
<path d="M132.816 178.02C132.816 178.02 123.389 178.02 122.21 180.377C121.032 182.733 109.247 198.053 104.533 201.589C99.8194 205.124 83.321 220.444 83.321 223.98C83.321 227.515 117.496 253.441 117.496 253.441C117.496 253.441 131.638 322.97 124.567 346.54C117.496 370.109 106.89 426.675 111.604 430.21C116.318 433.746 126.924 434.924 126.924 430.21C126.924 425.496 133.995 374.823 139.887 364.216C145.779 353.61 163.456 286.438 156.386 267.583C149.315 248.727 132.816 178.02 132.816 178.02Z" fill="#B80E66"/>
<path d="M288.373 294.687C288.373 294.687 289.552 331.22 276.589 350.075C263.626 368.93 255.376 390.143 255.376 390.143C255.376 390.143 234.164 384.25 230.629 377.18C227.093 370.109 204.702 376.001 204.702 373.644C204.702 371.287 231.807 359.503 234.164 357.146C236.521 354.789 244.77 354.789 249.484 350.075C254.198 345.361 255.376 334.755 255.376 334.755L260.09 304.115L288.373 294.687Z" fill="#9F616A"/>
<path d="M190.241 103.367C193.233 103.096 196.319 102.797 198.963 101.371C204.887 98.1756 206.458 89.0769 201.948 84.0801C200.705 82.8087 199.314 81.6903 197.805 80.7486L188.847 74.6515C184.885 71.9548 180.83 69.214 176.209 67.9427C172.03 66.7929 167.615 66.9111 163.289 67.18C154.89 67.702 146.44 68.7803 138.54 71.68C130.641 74.5797 123.272 79.4309 118.488 86.3533C110.903 97.3275 110.799 112.128 114.976 124.797C119.154 137.466 127.089 148.499 134.908 159.307L138.964 139.513C139.326 137.749 139.793 135.817 141.259 134.774C144.904 132.18 149.362 137.505 153.835 137.471C156.709 137.448 159.122 135.084 160.211 132.425C161.301 129.765 161.372 126.819 161.624 123.956C162.158 117.892 164.278 109.454 170.02 106.11C175.372 102.993 184.226 103.914 190.241 103.367Z" fill="#2F2E41"/>
<path opacity="0.1" d="M188.06 428.804C188.06 428.804 184.079 543.932 181.722 547.467C179.366 551.003 181.722 428.443 181.722 428.443L188.06 428.804Z" fill="black"/>
<path d="M234.164 187.447H243.592C243.592 187.447 283.659 241.656 278.946 245.192C274.232 248.727 278.946 258.155 278.946 258.155L288.373 275.832C288.373 275.832 300.158 286.438 296.622 288.795C293.087 291.152 288.373 300.58 288.373 300.58C288.373 300.58 264.804 297.044 257.733 311.186L242.449 291.89L234.164 187.447Z" fill="#B80E66"/>
<path d="M237.496 204.884L205.146 218.243L230.04 278.528L262.391 265.17L237.496 204.884Z" fill="#575A89"/>
<path d="M233.704 240.242C237.278 238.766 239.076 234.909 237.72 231.626C236.365 228.344 232.369 226.879 228.796 228.354C225.222 229.83 223.424 233.687 224.78 236.97C226.136 240.252 230.131 241.717 233.704 240.242Z" fill="#FBBC0E"/>
<path d="M210.595 281.724C210.595 281.724 125.746 352.432 111.604 330.041C97.4625 307.65 126.924 288.795 126.924 288.795C126.924 288.795 152.85 289.973 182.312 271.118L211.773 258.155C211.773 258.155 238.669 219.756 247.835 234.378C257 249 232.19 274.448 210.595 281.724Z" fill="#9F616A"/>
<path d="M96.2841 219.266L83.321 223.98V259.333L78.6071 266.404C78.6071 266.404 79.7856 280.546 83.321 284.081C86.8564 287.616 93.9271 286.438 91.5702 294.687C90.1537 300.065 89.754 305.661 90.3918 311.186C90.3918 311.186 111.604 338.29 112.783 334.755C113.961 331.22 130.459 287.616 132.816 287.616C135.173 287.616 109.247 219.266 109.247 219.266H96.2841Z" fill="#B80E66"/>
<path d="M251.252 397.803C251.252 397.803 263.437 386.018 257.344 385.429C251.252 384.84 230.039 373.055 226.504 378.947C222.969 384.839 251.252 397.803 251.252 397.803Z" fill="#1C1C1C"/>
<path d="M482 192C491.389 192 499 187.971 499 183C499 178.03 491.389 174 482 174C472.611 174 465 178.03 465 183C465 187.971 472.611 192 482 192Z" fill="#FBBC0E"/>
<path d="M547 213C508.667 198.523 470.333 198.523 432 213V166C469.498 154.685 509.502 154.685 547 166V213Z" stroke="#3F3D56" stroke-width="2" stroke-miterlimit="10"/>
<path d="M531 203.28C503.333 192.831 475.667 192.831 448 203.28V169.359C475.064 161.192 503.936 161.192 531 169.359V203.28Z" stroke="#3F3D56" stroke-width="2" stroke-miterlimit="10"/>
<path d="M488 188C497.389 188 505 183.971 505 179C505 174.03 497.389 170 488 170C478.611 170 471 174.03 471 179C471 183.971 478.611 188 488 188Z" stroke="#3F3D56" stroke-width="2" stroke-miterlimit="10"/>
<path d="M494.5 248.364C503.699 246.486 510.351 241.016 509.357 236.146C508.363 231.276 500.1 228.85 490.9 230.728C481.701 232.605 475.05 238.075 476.044 242.945C477.038 247.815 485.301 250.241 494.5 248.364Z" fill="#FBBC0E"/>
<path d="M562.386 255.941C521.932 249.422 484.373 257.088 449.709 278.938L440.311 232.888C474.789 214.302 513.984 206.303 552.988 209.891L562.386 255.941Z" stroke="#3F3D56" stroke-width="2" stroke-miterlimit="10"/>
<path d="M544.766 249.617C515.569 244.912 488.461 250.445 463.443 266.215L456.659 232.979C481.543 219.565 509.832 213.791 537.982 216.381L544.766 249.617Z" stroke="#3F3D56" stroke-width="2" stroke-miterlimit="10"/>
<path d="M499.579 243.245C508.778 241.367 515.43 235.897 514.436 231.027C513.442 226.157 505.179 223.731 495.979 225.608C486.78 227.486 480.129 232.956 481.122 237.826C482.116 242.696 490.38 245.122 499.579 243.245Z" stroke="#3F3D56" stroke-width="2" stroke-miterlimit="10"/>
<path d="M506.134 296.665C506.479 291.707 499.166 287.159 489.799 286.507C480.433 285.855 472.561 289.346 472.216 294.305C471.871 299.264 479.184 303.812 488.55 304.463C497.916 305.115 505.789 301.624 506.134 296.665Z" fill="#FBBC0E"/>
<path d="M551.935 329.925C514.7 312.821 476.459 310.16 437.213 321.942L440.475 275.055C478.669 266.37 518.576 269.147 555.198 283.038L551.935 329.925Z" stroke="#3F3D56" stroke-width="2" stroke-miterlimit="10"/>
<path d="M536.649 319.118C509.774 306.773 482.174 304.853 453.849 313.356L456.204 279.516C483.769 273.248 512.572 275.252 539.004 285.278L536.649 319.118Z" stroke="#3F3D56" stroke-width="2" stroke-miterlimit="10"/>
<path d="M512.397 293.091C512.742 288.133 505.429 283.585 496.063 282.933C486.696 282.281 478.824 285.773 478.479 290.731C478.134 295.69 485.447 300.238 494.813 300.89C504.179 301.541 512.052 298.05 512.397 293.091Z" stroke="#3F3D56" stroke-width="2" stroke-miterlimit="10"/>
<path d="M414.922 214.092C414.922 214.092 341.426 204.037 288.94 234.795" stroke="#3F3D56" stroke-width="2" stroke-miterlimit="10"/>
<path d="M290.708 224.459L292.617 225.063L289.633 234.462L299.227 236.751L298.76 238.698L287.077 235.907L290.708 224.459Z" fill="#3F3D56"/>
</svg>
