<svg width="180" height="510" viewBox="0 0 180 510" fill="none" xmlns="http://www.w3.org/2000/svg">
<path d="M93.5015 129.64L98.2152 161.521L152.088 198.554C152.088 198.554 180.413 212.349 178.63 220.92C177.041 228.559 155.184 227.655 148.305 215.841L83.8963 186.082L62.3551 142.741L93.5015 129.64Z" fill="#CE8585"/>
<path d="M93.2192 451.054L90.8356 484.968L67.7945 483.353L71.7671 451.054H93.2192Z" fill="#CE8585"/>
<path d="M86.863 474.471C86.863 474.471 90.0411 462.358 93.2192 463.166L97.9863 472.048C97.9863 472.048 119.438 492.235 125.795 493.043C125.795 493.043 146.452 499.503 125.795 509.192H101.959C101.959 509.192 86.0685 508.385 82.8904 509.192C79.7123 510 61.4383 510 60.6438 505.155C59.8493 500.31 63.0274 490.62 63.0274 490.62C63.0274 490.62 65.9574 466.797 69.2595 471.441C70.9853 473.933 72.8854 476.294 74.9452 478.508L86.863 474.471Z" fill="#A8001E"/>
<path d="M33.6301 451.457L31.2466 485.372L8.20551 483.757L12.1781 451.457H33.6301Z" fill="#CE8585"/>
<path d="M27.2739 474.874C27.2739 474.874 30.452 462.762 33.6301 463.569L38.3972 472.452C38.3972 472.452 59.8493 492.639 66.2055 493.446C66.2055 493.446 86.863 499.906 66.2055 509.596H42.3698C42.3698 509.596 26.4794 507.981 23.3013 508.789C20.1233 509.596 1.84928 509.596 1.05476 504.751C0.26024 499.906 3.43832 491.024 3.43832 491.024C3.43832 491.024 6.36835 467.201 9.67044 471.845C11.3962 474.336 13.2963 476.698 15.3561 478.912L27.2739 474.874Z" fill="#A8001E"/>
<path d="M124.205 243.125L128.178 248.778V260.083L102.753 356.174L97.9863 377.168C97.9863 377.168 97.9863 457.917 93.2192 457.917C88.4521 457.917 67 460.34 67 455.495C67 450.65 68.589 340.831 68.589 340.831L47.137 382.013C47.137 382.013 37.6027 454.687 34.4247 455.495C31.2466 456.302 8.99999 455.495 7.41095 450.65L12.1781 404.623C12.1781 404.623 11.3836 352.944 24.8904 341.639C24.8904 341.639 27.274 327.912 29.6575 322.259C32.0411 316.607 36.0137 313.377 33.6301 309.339C31.2466 305.302 36.8082 260.89 36.8082 260.89C36.8082 260.89 35.2192 247.163 38.3973 243.125C41.5753 239.088 124.205 243.125 124.205 243.125Z" fill="#168321"/>
<path d="M73.3561 59.8258C59.7533 59.8258 48.726 48.6185 48.726 34.7937C48.726 20.9688 59.7533 9.76157 73.3561 9.76157C86.959 9.76157 97.9863 20.9688 97.9863 34.7937C97.9863 48.6185 86.959 59.8258 73.3561 59.8258Z" fill="#CE8585"/>
<path d="M57.863 49.7322L59.4521 65.8819L53.0959 71.5343L93.6165 90.914C83.6349 73.5825 80.6787 57.801 85.6712 46.5022L57.863 49.7322Z" fill="#CE8585"/>
<path d="M85.6712 73.9568C85.6712 73.9568 92.0274 86.8766 84.0822 83.6467L59.4521 65.8819C59.4521 65.8819 32.4384 76.3793 22.9041 88.4916L30.8493 174.085L37.2055 234.647C37.2055 234.647 33.2329 241.914 34.0274 242.722C34.8219 243.529 35.6164 241.914 34.8219 244.337C34.0274 246.759 31.6438 244.337 34.0274 246.759C36.411 249.182 38.7945 246.759 36.411 249.182C34.0274 251.604 36.411 252.412 36.411 252.412C36.411 252.412 39.589 233.032 67.3973 247.567C95.2055 262.101 107.123 266.139 127.781 248.374L103.945 156.321L102.021 121.602C101.378 110.005 99.3472 98.5306 95.9738 87.4329C94.1517 81.4386 90.9774 75.5479 85.6712 72.3418V73.9568Z" fill="#D73350"/>
<path d="M43.1644 144.612L31.2466 174.489L59.0548 234.243C59.0548 234.243 65.4109 241.51 61.4383 250.393C59.3859 255.139 56.996 259.727 54.2876 264.12C54.2876 264.12 47.137 260.89 47.137 247.163L6.61646 188.216L9.79453 139.767L43.1644 144.612Z" fill="#CE8585"/>
<path d="M44.7534 91.3178C44.7534 91.3178 55.8767 102.623 51.1096 120.387C46.3425 138.152 42.3699 151.879 42.3699 151.879C42.3699 151.879 23.3014 137.345 7.41095 146.227C7.41095 146.227 9.79451 93.7403 23.3014 88.8953C36.8082 84.0504 44.7534 91.3178 44.7534 91.3178Z" fill="#D73350"/>
<path d="M53.1086 13.3197C53.1086 13.3197 60.6338 -3.25112 75.0573 0.572924C89.4807 4.39697 97.6331 10.133 98.2602 15.8691C98.8873 21.6052 97.9466 30.2093 97.9466 30.2093C97.9466 30.2093 96.3789 18.4185 86.3452 20.9678C76.3115 23.5172 60.6339 21.6052 60.6339 21.6052L58.1254 44.5494C58.1254 44.5494 53.8478 39.9154 50.7123 42.4648C47.5768 45.0142 43.0748 18.4185 53.1086 13.3197Z" fill="#3D3D3D"/>
<path d="M177.71 193.402L163.046 189.95C162.338 189.784 161.596 189.867 160.94 190.186C160.285 190.505 159.757 191.041 159.441 191.706L144.42 223.364C144.256 223.71 144.168 224.087 144.163 224.471C144.158 224.854 144.236 225.234 144.39 225.583C144.545 225.933 144.773 226.244 145.058 226.495C145.344 226.745 145.68 226.93 146.043 227.034L160.946 231.338C161.744 231.568 162.597 231.496 163.346 231.134C164.095 230.772 164.69 230.145 165.018 229.371L174.602 206.744L174.894 206.908L176.719 202.622L176.415 202.464L179.091 196.148C179.206 195.878 179.26 195.585 179.25 195.29C179.241 194.996 179.168 194.707 179.036 194.445C178.904 194.183 178.717 193.953 178.487 193.773C178.258 193.593 177.993 193.466 177.71 193.402V193.402Z" fill="#3F3D56"/>
<path d="M164.812 191.125L163.1 190.722C162.609 190.606 162.093 190.665 161.639 190.888C161.184 191.111 160.819 191.486 160.603 191.949L145.941 223.405C145.856 223.586 145.811 223.784 145.809 223.984C145.807 224.184 145.847 224.383 145.927 224.566C146.007 224.749 146.125 224.913 146.272 225.045C146.42 225.178 146.595 225.277 146.783 225.335L161.582 229.872C161.999 230 162.448 229.968 162.844 229.78C163.239 229.593 163.553 229.265 163.725 228.858L177.597 196.043C177.687 195.831 177.73 195.601 177.722 195.37C177.715 195.139 177.658 194.912 177.556 194.706C177.453 194.5 177.307 194.319 177.128 194.176C176.949 194.034 176.741 193.933 176.52 193.881L174.896 193.498C174.739 193.461 174.574 193.478 174.427 193.546C174.28 193.614 174.159 193.729 174.083 193.873V193.873C174.016 194.001 173.909 194.103 173.78 194.163C173.65 194.222 173.505 194.237 173.366 194.204L165.657 192.39C165.385 192.326 165.147 192.16 164.99 191.926C164.834 191.691 164.77 191.405 164.812 191.125V191.125Z" fill="#6C63FF"/>
</svg>
