<svg width="134" height="506" viewBox="0 0 134 506" fill="none" xmlns="http://www.w3.org/2000/svg">
<path d="M41.6818 447.516L44.0464 481.164L66.9041 479.562L62.9631 447.516H41.6818Z" fill="#E8B689"/>
<path d="M47.9873 470.749C47.9873 470.749 44.8346 458.732 41.6818 459.533L36.9526 468.346C36.9526 468.346 15.6712 488.375 9.36564 489.176C9.36564 489.176 -11.1275 495.585 9.36564 505.199H33.0116C33.0116 505.199 48.7755 504.398 51.9283 505.199C55.0811 506 73.2097 506 73.9979 501.193C74.7861 496.386 71.6333 486.772 71.6333 486.772C71.6333 486.772 68.7265 463.136 65.4507 467.744C63.7387 470.216 61.8537 472.559 59.8103 474.755L47.9873 470.749Z" fill="#7B4570"/>
<path d="M100.797 447.916L103.161 481.565L126.019 479.963L122.078 447.916H100.797Z" fill="#E8B689"/>
<path d="M107.102 471.15C107.102 471.15 103.949 459.132 100.797 459.934L96.0674 468.746C96.0674 468.746 74.7861 488.775 68.4805 489.576C68.4805 489.576 47.9874 495.986 68.4805 505.599H92.1265C92.1265 505.599 107.89 503.997 111.043 504.798C114.196 505.599 132.325 505.599 133.113 500.792C133.901 495.986 130.748 487.173 130.748 487.173C130.748 487.173 127.841 463.537 124.566 468.144C122.854 470.616 120.969 472.959 118.925 475.156L107.102 471.15Z" fill="#7B4570"/>
<path d="M10.942 241.219L7.00104 246.827V258.043L32.2234 353.38L36.9526 374.21C36.9526 374.21 36.9526 454.326 41.6817 454.326C46.4109 454.326 67.6923 456.729 67.6923 451.922C67.6923 447.115 66.1159 338.158 66.1159 338.158L87.3972 379.017C87.3972 379.017 96.8556 451.121 100.008 451.922C103.161 452.723 125.231 451.922 126.807 447.115L122.078 401.449C122.078 401.449 122.866 350.175 109.467 338.959C109.467 338.959 107.102 325.34 104.738 319.732C102.373 314.124 98.432 310.919 100.797 306.913C103.161 302.907 97.6438 258.844 97.6438 258.844C97.6438 258.844 99.2202 245.224 96.0674 241.219C92.9146 237.213 10.942 241.219 10.942 241.219Z" fill="#D46DBE"/>
<path d="M61.3867 59.3566C74.8813 59.3566 85.8209 48.2372 85.8209 34.5208C85.8209 20.8044 74.8813 9.685 61.3867 9.685C47.8922 9.685 36.9526 20.8044 36.9526 34.5208C36.9526 48.2372 47.8922 59.3566 61.3867 59.3566Z" fill="#E8B689"/>
<path d="M76.7566 49.3421L75.1802 65.3652L81.4858 70.9733L41.2877 90.201C51.1898 73.0054 54.1224 57.3476 49.1696 46.1375L76.7566 49.3421Z" fill="#E8B689"/>
<path d="M49.1697 73.3768C49.1697 73.3768 42.8641 86.1952 50.746 82.9906L75.1802 65.3652C75.1802 65.3652 101.979 75.7802 111.437 87.7975L103.555 172.72L97.2497 232.806C97.2497 232.806 101.191 240.017 100.403 240.818C99.6143 241.619 98.8261 240.017 99.6143 242.42C100.403 244.824 102.767 242.42 100.403 244.824C98.0379 247.227 95.6734 244.824 98.0379 247.227C100.403 249.631 98.0379 250.432 98.0379 250.432C98.0379 250.432 94.8852 231.204 67.2982 245.625C39.7113 260.046 27.8883 264.051 7.39514 246.426L31.0411 155.094L32.9503 120.648C33.5881 109.142 35.6025 97.7579 38.9491 86.7472C40.7567 80.7999 43.9057 74.9554 49.1697 71.7745V73.3768Z" fill="#B80E66"/>
<path d="M91.3383 143.478L103.161 173.12L75.5743 232.406C75.5743 232.406 69.2687 239.616 73.2097 248.429C75.2458 253.138 77.6167 257.69 80.3035 262.049C80.3035 262.049 87.3973 258.844 87.3973 245.224L127.595 186.74L124.443 138.671L91.3383 143.478Z" fill="#E8B689"/>
<path d="M89.7619 90.6016C89.7619 90.6016 78.7271 101.818 83.4563 119.443C88.1855 137.068 92.1265 150.688 92.1265 150.688C92.1265 150.688 111.043 136.267 126.807 145.08C126.807 145.08 124.443 93.005 111.043 88.1981C97.6438 83.3912 89.7619 90.6016 89.7619 90.6016Z" fill="#D56DBE"/>
<path d="M81.4732 13.2153C81.4732 13.2153 74.0078 -3.22562 59.6992 0.568431C45.3905 4.36248 37.303 10.0536 36.6809 15.7446C36.0588 21.4357 36.992 29.9723 36.992 29.9723C36.992 29.9723 38.5472 18.274 48.5011 20.8034C58.4549 23.3328 74.0078 21.4357 74.0078 21.4357L76.4963 44.2C76.4963 44.2 80.7399 39.6024 83.8504 42.1317C86.961 44.6611 91.4271 18.274 81.4732 13.2153Z" fill="#454242"/>
</svg>
